Coordinates
version=1
nRows=11
nColumns=63
inDegrees=yes

Units are S.I. units (second, meters, Newtons, ...)
If the header above contains a line with 'inDegrees', this indicates whether rotational values are in degrees (yes) or radians (no).

endheader
time	pelvis_tilt	pelvis_list	pelvis_rotation	pelvis_tx	pelvis_ty	pelvis_tz	hip_flexion_r	hip_adduction_r	hip_rotation_r	knee_angle_r	knee_angle_r_beta	ankle_angle_r	subtalar_angle_r	mtp_angle_r	hip_flexion_l	hip_adduction_l	hip_rotation_l	knee_angle_l	knee_angle_l_beta	ankle_angle_l	subtalar_angle_l	mtp_angle_l	L5_S1_Flex_Ext	L5_S1_Lat_Bending	L5_S1_axial_rotation	L4_L5_Flex_Ext	L4_L5_Lat_Bending	L4_L5_axial_rotation	L3_L4_Flex_Ext	L3_L4_Lat_Bending	L3_L4_axial_rotation	L2_L3_Flex_Ext	L2_L3_Lat_Bending	L2_L3_axial_rotation	L1_L2_Flex_Ext	L1_L2_Lat_Bending	L1_L2_axial_rotation	L1_T12_Flex_Ext	L1_T12_Lat_Bending	L1_T12_axial_rotation	Abs_r3	Abs_r2	Abs_r1	Abs_t1	Abs_t2	neck_flexion	neck_bending	neck_rotation	arm_flex_r	arm_add_r	arm_rot_r	elbow_flex_r	pro_sup_r	wrist_flex_r	wrist_dev_r	arm_flex_l	arm_add_l	arm_rot_l	elbow_flex_l	pro_sup_l	wrist_flex_l	wrist_dev_l
3.101695	-0.423198	-0.273943	92.911894	0.183892	1.040551	0.354562	-4.890486	0.174150	-9.013299	11.791812	0.205806	27.165121	-1.826729	0.000000	-4.038898	-0.757779	-2.286609	7.374947	0.128717	30.448805	10.808628	0.000000	0.047536	0.176702	-0.223712	0.088278	0.235014	-0.237694	0.078096	0.429634	-0.237694	0.054328	0.429634	-0.195748	0.044142	0.360332	-0.181766	0.027162	0.273712	-0.167784	0.339542	1.998894	-1.244217	0.000000	0.000000	15.608144	-3.517052	-2.702743	5.328083	-11.408630	50.305121	25.653133	72.826217	5.796433	-0.410130	12.191569	-11.766795	71.092099	28.127752	72.940890	-2.419713	-15.060733
3.118644	-0.606551	-0.369827	92.762012	0.184538	1.040626	0.354572	-5.308611	0.053024	-9.084896	10.681126	0.186421	27.132044	-0.865191	0.000000	-4.360791	-0.529020	-1.803501	6.507964	0.113585	29.760078	10.113403	0.000000	0.040918	0.148481	-0.170888	0.075988	0.197479	-0.181569	0.067224	0.361016	-0.181569	0.046765	0.361016	-0.149527	0.037996	0.302782	-0.138847	0.023380	0.229996	-0.128166	0.292271	1.679643	-0.950430	0.000000	0.000000	16.201482	-3.323124	-2.675246	5.850708	-11.571629	57.436639	23.640787	66.214026	6.532356	-0.701078	10.778369	-13.033536	64.600110	28.871909	79.250407	-3.639448	-14.020598
3.135593	-0.746769	-0.508086	92.678845	0.184939	1.040527	0.354957	-5.673689	-0.017662	-9.073376	9.560729	0.166866	26.989693	-0.177027	0.000000	-4.572842	-0.329766	-1.068982	5.743811	0.100248	29.049345	9.117261	0.000000	0.034727	0.127059	-0.127607	0.064492	0.168989	-0.135583	0.057053	0.308932	-0.135583	0.039690	0.308932	-0.111656	0.032248	0.259100	-0.103681	0.019843	0.196815	-0.095705	0.248053	1.437322	-0.709714	0.000000	0.000000	16.853750	-3.137064	-2.597857	6.379835	-11.730857	65.183952	21.580043	59.076499	7.153721	-0.933224	9.551970	-14.009593	60.738053	29.086018	82.989021	-4.700307	-13.146382
3.152542	-0.848294	-0.679460	92.654995	0.185105	1.040274	0.355683	-5.988241	-0.044975	-9.013628	8.454128	0.147552	26.760008	0.294356	0.000000	-4.697068	-0.158554	-0.105645	5.064427	0.088391	28.339402	7.855426	0.000000	0.028200	0.112070	-0.091905	0.052370	0.149052	-0.097649	0.046330	0.272486	-0.097649	0.032230	0.272486	-0.080417	0.026187	0.228532	-0.074673	0.016114	0.173596	-0.068929	0.201430	1.267753	-0.511147	0.000000	0.000000	17.554074	-2.929121	-2.462073	6.883433	-11.875494	73.526556	19.492932	51.259785	7.644404	-1.093176	8.530908	-14.753790	58.719704	28.964568	84.596689	-5.715936	-12.303120
3.169492	-0.909711	-0.890301	92.668120	0.185064	1.039865	0.356721	-6.233926	-0.031513	-8.834809	7.383214	0.128861	26.422449	0.465957	0.000000	-4.728157	-0.019574	0.983470	4.471512	0.078043	27.673687	6.450487	0.000000	0.023050	0.103938	-0.059841	0.042805	0.138238	-0.063581	0.037868	0.252716	-0.063581	0.026343	0.252716	-0.052361	0.021404	0.211951	-0.048621	0.013171	0.161001	-0.044881	0.164641	1.175772	-0.332817	0.000000	0.000000	18.293308	-2.733726	-2.304384	7.290220	-12.048123	81.658023	17.499068	43.234162	7.889161	-1.158577	7.694180	-15.232794	59.113249	28.435845	84.049366	-6.713771	-11.337487
3.186441	-0.937339	-1.133657	92.716399	0.184826	1.039332	0.358024	-6.417232	0.015739	-8.537321	6.355716	0.110928	25.974436	0.340165	0.000000	-4.676849	0.092727	2.173730	3.960512	0.069124	27.073446	4.954168	0.000000	0.019779	0.101781	-0.034027	0.036731	0.135368	-0.036153	0.032495	0.247469	-0.036153	0.022605	0.247469	-0.029773	0.018367	0.207551	-0.027647	0.011302	0.157658	-0.025520	0.141278	1.151362	-0.189246	0.000000	0.000000	19.040990	-2.581684	-2.177376	7.581874	-12.260714	89.293917	15.642901	35.250021	7.834092	-1.213284	7.028489	-15.451575	61.967668	27.485018	81.684901	-7.624326	-10.219123
3.203390	-0.937771	-1.404179	92.770789	0.184444	1.038698	0.359557	-6.531705	0.084926	-8.094457	5.397524	0.094205	25.425488	-0.092988	0.000000	-4.558097	0.180904	3.404417	3.520430	0.061443	26.540291	3.403679	0.000000	0.018267	0.104893	-0.017498	0.033924	0.139508	-0.018592	0.030011	0.255037	-0.018592	0.020878	0.255037	-0.015311	0.016963	0.213898	-0.014217	0.010438	0.162479	-0.013124	0.130481	1.186571	-0.097320	0.000000	0.000000	19.791598	-2.469986	-2.053370	7.800157	-12.530633	96.516411	13.965418	27.390372	7.466582	-1.261166	6.503452	-15.418680	67.270933	26.103328	77.786599	-8.435272	-9.030706
3.220339	-0.913326	-1.698675	92.830412	0.183930	1.037983	0.361244	-6.581089	0.171763	-7.555461	4.520110	0.078891	24.793140	-0.775509	0.000000	-4.378910	0.244565	4.606014	3.148605	0.054954	26.094933	1.894943	0.000000	0.019932	0.112821	-0.012429	0.037016	0.150052	-0.013206	0.032746	0.274313	-0.013206	0.022780	0.274313	-0.010876	0.018509	0.230065	-0.010099	0.011389	0.174760	-0.009322	0.142373	1.276255	-0.069129	0.000000	0.000000	20.531750	-2.407230	-1.942506	7.903708	-12.869568	102.840575	12.530355	20.061178	6.767092	-1.296699	6.109691	-15.124306	75.125455	24.282509	72.323807	-9.019080	-7.939429
3.237288	-0.865263	-2.018047	92.890320	0.183288	1.037199	0.363079	-6.552875	0.268973	-6.991417	3.748548	0.065424	24.107366	-1.614172	0.000000	-4.136707	0.283816	5.666572	2.844736	0.049650	25.758070	0.575502	0.000000	0.025119	0.125516	-0.018965	0.046648	0.166937	-0.020150	0.041267	0.305180	-0.020150	0.028708	0.305180	-0.016594	0.023325	0.255953	-0.015409	0.014353	0.194425	-0.014224	0.179420	1.419866	-0.105478	0.000000	0.000000	21.266773	-2.379655	-1.820709	7.865885	-13.282664	107.854961	11.394846	13.642799	5.742955	-1.281125	5.850072	-14.672712	84.314760	22.205886	65.612156	-9.365692	-7.017511
3.254237	-0.795389	-2.352199	92.936929	0.182562	1.036373	0.365027	-6.455221	0.376240	-6.382682	3.089440	0.053921	23.371174	-2.626545	0.000000	-3.845660	0.302038	6.643901	2.604375	0.045455	25.502378	-0.660506	0.000000	0.033035	0.142550	-0.031608	0.061350	0.189592	-0.033583	0.054274	0.346597	-0.033583	0.037756	0.346597	-0.027657	0.030677	0.290689	-0.025681	0.018876	0.220811	-0.023706	0.235968	1.612558	-0.175794	0.000000	0.000000	21.994927	-2.385837	-1.686842	7.686291	-13.765772	111.543123	10.561636	8.141701	4.482362	-1.177426	5.735241	-14.096522	94.717549	19.939540	57.623782	-9.408571	-6.398997
3.271186	-0.702989	-2.702835	92.958966	0.181781	1.035515	0.367102	-6.273675	0.481548	-5.848256	2.565751	0.044781	22.653700	-3.613775	0.000000	-3.493699	0.293018	7.330175	2.444940	0.042672	25.373827	-1.542676	0.000000	0.043607	0.164118	-0.040160	0.080983	0.218277	-0.042671	0.071642	0.399036	-0.042671	0.049838	0.399036	-0.035140	0.040494	0.334669	-0.032630	0.024917	0.254218	-0.030120	0.311481	1.856533	-0.223361	0.000000	0.000000	22.730013	-2.417080	-1.517893	7.291331	-14.303938	113.186373	10.068958	4.022561	3.037844	-0.917956	5.784295	-13.479450	105.518465	17.652473	48.849831	-9.331153	-6.057197
